<svg width="519" height="441" viewBox="0 0 519 441" fill="none" xmlns="http://www.w3.org/2000/svg">
<mask id="path-1-inside-1_736_8903" fill="white">
<path d="M519 374.92V441H0V384.293H16.7684V309.778H22.2797L22.9833 297.359L37.7582 280.019V256.117H42.0969V280.019L58.1618 297.359V309.778H62.735V310.95H63.9076V334.968H73.6403V198.239L90.6432 152.311V132.628H94.1611V152.311L111.985 198.239V362.032H127.932V343.052H131.45V282.362H135.906V217.219H140.597V123.489H141.769V92.5584H142.707V91.3868H143.88V57.1753H145.053V56.0037H146.225V21.5579H147.398V0H149.743V34.2115H150.681V68.423H151.971V69.4774H153.026V110.836H154.316V113.179H156.427V135.791V137.08H157.6V192.029H159.945V193.084H161.235V261.741H162.29V262.913H164.518V264.084H165.691L165.573 325.595H166.863V326.884H169.209V328.055H170.381V351.019H173.664V233.154H174.837V227.53H176.01V222.843H177.182V217.219H178.355V213.705H179.41V211.361H180.466V209.018H181.638V206.909H182.928V205.738V203.511H183.984V202.223H185.156V201.285V200.114H186.329V198.942H187.501V194.256H188.674V192.029H189.847V190.975H193.364V192.029H194.303V192.967V197.77H195.475V198.942H196.648V200.114H197.82V202.223H198.993V204.566H200.166V206.909H201.338V209.252H202.511V211.478H203.566V214.876H204.622V217.922H205.677V222.023L206.967 222.375V231.162H207.905V237.84V255.649H209.429V265.49H210.836C210.836 265.49 211.052 258.598 212.595 254.829C214.007 251.382 217.286 248.033 217.286 248.033C217.286 248.033 216.002 241.59 217.286 238.309C218.7 234.693 224.322 231.982 224.322 231.982C224.322 231.982 223.074 225.707 224.322 222.023C225.508 218.521 229.95 214.408 229.95 214.408L228.074 210.541L226.315 207.143L222.797 202.34L219.397 200.348L215.175 198.005L213.182 196.95L211.305 195.662H209.195V194.49H249.65L251.057 189.218L255.396 180.079L262.314 166.722L269.585 155.592L276.62 145.867L284.477 136.026L290.809 128.176L295.382 123.489L299.369 120.56V52.4888L311.095 67.9543V197.77H315.786V201.168H320.476L322.469 201.637L323.994 202.105L325.753 203.511L326.808 204.566L327.277 206.44V207.964L326.808 209.955L325.167 211.244L315.786 212.416L319.186 317.628H324.697L325.167 212.416L328.215 210.307L327.629 175.861L333.609 165.316V150.085H350.73V165.316L357.765 175.861V210.307L360.228 212.416V331.453H372.775V189.076H376.762V136.612L382.39 132.511V109.899L392.24 99.7054L392.475 84.7086H395.289V99.7054L405.96 109.899V132.511L410.885 136.612V189.076H414.403V366.25H435.041L434.572 339.889L450.05 339.303V326.766L452.747 293.375L453.216 277.793L452.747 265.725L451.575 252.368L448.526 220.031L445.594 189.921V159.458L453.568 157.935L460.721 156.764H475.027H481.242L491.092 158.99L489.098 189.921L487.105 220.031L485.58 252.368V265.725V277.793V292.789L487.339 326.766V341.295L488.981 374.92H519Z"/>
</mask>
<path d="M519 374.92V441H0V384.293H16.7684V309.778H22.2797L22.9833 297.359L37.7582 280.019V256.117H42.0969V280.019L58.1618 297.359V309.778H62.735V310.95H63.9076V334.968H73.6403V198.239L90.6432 152.311V132.628H94.1611V152.311L111.985 198.239V362.032H127.932V343.052H131.45V282.362H135.906V217.219H140.597V123.489H141.769V92.5584H142.707V91.3868H143.88V57.1753H145.053V56.0037H146.225V21.5579H147.398V0H149.743V34.2115H150.681V68.423H151.971V69.4774H153.026V110.836H154.316V113.179H156.427V135.791V137.08H157.6V192.029H159.945V193.084H161.235V261.741H162.29V262.913H164.518V264.084H165.691L165.573 325.595H166.863V326.884H169.209V328.055H170.381V351.019H173.664V233.154H174.837V227.53H176.01V222.843H177.182V217.219H178.355V213.705H179.41V211.361H180.466V209.018H181.638V206.909H182.928V205.738V203.511H183.984V202.223H185.156V201.285V200.114H186.329V198.942H187.501V194.256H188.674V192.029H189.847V190.975H193.364V192.029H194.303V192.967V197.77H195.475V198.942H196.648V200.114H197.82V202.223H198.993V204.566H200.166V206.909H201.338V209.252H202.511V211.478H203.566V214.876H204.622V217.922H205.677V222.023L206.967 222.375V231.162H207.905V237.84V255.649H209.429V265.49H210.836C210.836 265.49 211.052 258.598 212.595 254.829C214.007 251.382 217.286 248.033 217.286 248.033C217.286 248.033 216.002 241.59 217.286 238.309C218.7 234.693 224.322 231.982 224.322 231.982C224.322 231.982 223.074 225.707 224.322 222.023C225.508 218.521 229.95 214.408 229.95 214.408L228.074 210.541L226.315 207.143L222.797 202.34L219.397 200.348L215.175 198.005L213.182 196.95L211.305 195.662H209.195V194.49H249.65L251.057 189.218L255.396 180.079L262.314 166.722L269.585 155.592L276.62 145.867L284.477 136.026L290.809 128.176L295.382 123.489L299.369 120.56V52.4888L311.095 67.9543V197.77H315.786V201.168H320.476L322.469 201.637L323.994 202.105L325.753 203.511L326.808 204.566L327.277 206.44V207.964L326.808 209.955L325.167 211.244L315.786 212.416L319.186 317.628H324.697L325.167 212.416L328.215 210.307L327.629 175.861L333.609 165.316V150.085H350.73V165.316L357.765 175.861V210.307L360.228 212.416V331.453H372.775V189.076H376.762V136.612L382.39 132.511V109.899L392.24 99.7054L392.475 84.7086H395.289V99.7054L405.96 109.899V132.511L410.885 136.612V189.076H414.403V366.25H435.041L434.572 339.889L450.05 339.303V326.766L452.747 293.375L453.216 277.793L452.747 265.725L451.575 252.368L448.526 220.031L445.594 189.921V159.458L453.568 157.935L460.721 156.764H475.027H481.242L491.092 158.99L489.098 189.921L487.105 220.031L485.58 252.368V265.725V277.793V292.789L487.339 326.766V341.295L488.981 374.92H519Z" fill="#71C168" stroke="#71C168" stroke-width="10" mask="url(#path-1-inside-1_736_8903)"/>
</svg>
