<svg width="86" height="40" viewBox="0 0 86 40" fill="none" xmlns="http://www.w3.org/2000/svg">
<path d="M56.1361 40C55.1939 40 54.4025 39.714 53.762 39.1419C53.1215 38.5699 52.8013 37.8172 52.8013 36.8839C52.8013 35.9506 53.1215 35.1979 53.762 34.6259C54.4025 34.0539 55.1939 33.7679 56.1361 33.7679C56.7766 33.7679 57.3155 33.9064 57.7527 34.1833C58.19 34.4603 58.5287 34.8096 58.7689 35.2311L57.4387 35.9085C57.3155 35.6917 57.1369 35.5111 56.9029 35.3666C56.675 35.216 56.4194 35.1407 56.1361 35.1407C55.6373 35.1407 55.2247 35.3093 54.8983 35.6465C54.578 35.9777 54.4179 36.3902 54.4179 36.8839C54.4179 37.3777 54.578 37.7932 54.8983 38.1304C55.2247 38.4615 55.6373 38.6271 56.1361 38.6271C56.3517 38.6271 56.5641 38.591 56.7735 38.5187C56.9891 38.4465 57.1554 38.3622 57.2724 38.2658V37.7962H55.8867V36.4323H58.8613V38.8258C58.1346 39.6086 57.2262 40 56.1361 40Z" fill="white"/>
<path d="M65.0474 39.8916H63.2276L62.193 37.8684H61.38V39.8916H59.7911V33.8672H62.8766C63.5417 33.8672 64.0651 34.0569 64.447 34.4362C64.8288 34.8156 65.0197 35.2943 65.0197 35.8723C65.0197 36.3541 64.8966 36.7485 64.6502 37.0555C64.41 37.3566 64.1237 37.5644 63.7911 37.6788L65.0474 39.8916ZM62.6364 36.5136C62.8519 36.5136 63.0336 36.4564 63.1814 36.342C63.3292 36.2276 63.4031 36.068 63.4031 35.8633C63.4031 35.6646 63.3292 35.5081 63.1814 35.3936C63.0336 35.2792 62.8519 35.222 62.6364 35.222H61.38V36.5136H62.6364Z" fill="white"/>
<path d="M71.238 39.1239C70.616 39.708 69.8308 40 68.8824 40C67.9339 40 67.1456 39.708 66.5175 39.1239C65.8955 38.5398 65.5845 37.7932 65.5845 36.8839C65.5845 35.9747 65.8955 35.2281 66.5175 34.644C67.1456 34.0599 67.9339 33.7679 68.8824 33.7679C69.8308 33.7679 70.616 34.0599 71.238 34.644C71.86 35.2281 72.171 35.9747 72.171 36.8839C72.171 37.7932 71.86 38.5398 71.238 39.1239ZM68.8824 38.6271C69.3812 38.6271 69.7846 38.4615 70.0925 38.1304C70.4004 37.7992 70.5544 37.3837 70.5544 36.8839C70.5544 36.3842 70.4004 35.9687 70.0925 35.6375C69.7846 35.3063 69.3812 35.1407 68.8824 35.1407C68.3774 35.1407 67.9709 35.3063 67.663 35.6375C67.355 35.9687 67.2011 36.3842 67.2011 36.8839C67.2011 37.3837 67.355 37.7992 67.663 38.1304C67.9709 38.4615 68.3774 38.6271 68.8824 38.6271Z" fill="white"/>
<path d="M75.8904 40C74.9297 40 74.2029 39.7682 73.7103 39.3045C73.2176 38.8409 72.9712 38.2237 72.9712 37.453V33.8672H74.5879V37.3988C74.5879 37.7661 74.6987 38.0641 74.9204 38.2929C75.1483 38.5157 75.4716 38.6271 75.8904 38.6271C76.303 38.6271 76.6202 38.5157 76.8419 38.2929C77.0697 38.0641 77.1837 37.7661 77.1837 37.3988V33.8672H78.7911V37.4439C78.7911 38.2207 78.5447 38.8409 78.052 39.3045C77.5655 39.7682 76.845 40 75.8904 40Z" fill="white"/>
<path d="M81.4885 39.8916H79.8996V33.8672H82.985C83.6501 33.8672 84.1736 34.0599 84.5555 34.4453C84.9373 34.8246 85.1282 35.3003 85.1282 35.8723C85.1282 36.4384 84.9373 36.914 84.5555 37.2994C84.1736 37.6788 83.6501 37.8684 82.985 37.8684H81.4885V39.8916ZM82.7726 36.5136C82.9881 36.5136 83.1636 36.4564 83.2991 36.342C83.4408 36.2276 83.5116 36.071 83.5116 35.8723C83.5116 35.6676 83.4408 35.5081 83.2991 35.3936C83.1636 35.2792 82.9881 35.222 82.7726 35.222H81.4885V36.5136H82.7726Z" fill="white"/>
<path d="M52.5611 0H59.689V6.96918H52.5611V0Z" fill="white"/>
<path d="M52.5611 8.13071H59.689V15.0999H52.5611V8.13071Z" fill="white"/>
<path d="M60.877 8.13071H68.005V15.0999H60.877V8.13071Z" fill="white"/>
<path d="M52.5611 16.2614H59.689V23.2306H52.5611V16.2614Z" fill="white"/>
<path d="M60.877 16.2614H68.005V23.2306H60.877V16.2614Z" fill="white"/>
<path d="M69.193 16.2614H76.3209V23.2306H69.193V16.2614Z" fill="white"/>
<path d="M52.5611 24.3921H59.689V31.3613H52.5611V24.3921Z" fill="white"/>
<path d="M60.877 24.3921H68.005V31.3613H60.877V24.3921Z" fill="white"/>
<path d="M69.193 24.3921H76.3209V31.3613H69.193V24.3921Z" fill="white"/>
<path d="M77.5089 24.3921H84.6368V31.3613H77.5089V24.3921Z" fill="white"/>
<path d="M13.2655 29.856H6.90988V11.1777H0V5.75844H20.1384V11.1777H13.2655V29.856Z" fill="white"/>
<path d="M46.0733 29.856H39.9394L29.5191 15.9105V29.856H23.1635V5.75844H29.7039L39.6807 19.0175V5.75844H46.0733V29.856Z" fill="white"/>
</svg>
