<?xml version="1.0" encoding="utf-8"?><svg viewBox="0 0 32 32" xmlns="http://www.w3.org/2000/svg" xmlns:xlink="http://www.w3.org/1999/xlink"><style>:root>svg{display:none}:root>svg:target{display:block}</style><svg viewBox="0 0 10 6" id="arrow" xmlns="http://www.w3.org/2000/svg"><path d="M1 1l4 4 4-4"/></svg><svg viewBox="0 0 14 8" id="arrow-down" xmlns="http://www.w3.org/2000/svg"><path d="M1 1l6 6 6-6"/></svg><svg viewBox="0 0 28 14" id="arrow-right" xmlns="http://www.w3.org/2000/svg"><path d="M21 1.4L26.6 7m0 0L21 12.6M26.6 7H1.4"/></svg><svg viewBox="0 0 24 24" id="calendar" xmlns="http://www.w3.org/2000/svg"><path d="M8 7V3m8 4V3m-9 8h10M5 21h14a2 2 0 002-2V7a2 2 0 00-2-2H5a2 2 0 00-2 2v12a2 2 0 002 2z"/></svg><svg viewBox="0 0 12 9" id="check" xmlns="http://www.w3.org/2000/svg"><path d="M11 1L4.125 7.875 1 4.75"/></svg><svg viewBox="0 0 24 24" id="check-circle" xmlns="http://www.w3.org/2000/svg"><path d="M9 12l2 2 4-4m6 2a9 9 0 11-18 0 9 9 0 0118 0z"/></svg><svg viewBox="0 0 32 32" id="contact-phone" xmlns="http://www.w3.org/2000/svg"><g clip-path="url(#gclip0_736_8897)"><path d="M13.302 18.687a19.103 19.103 0 006.953 4.596l3.542-2.878a.62.62 0 01.715 0l6.577 4.327a1.9 1.9 0 01.617.615 1.947 1.947 0 01-.307 2.436l-3.082 3.11a3.742 3.742 0 01-1.579.95 3.683 3.683 0 01-1.832.076 32.752 32.752 0 01-16.115-8.636C4.418 18.874 1.393 13.265.081 7.134a3.7 3.7 0 01.078-1.841c.181-.597.51-1.136.955-1.565L4.31.581c.198-.208.439-.367.705-.465a1.843 1.843 0 011.629.17c.24.152.445.358.598.602l4.379 6.63a.613.613 0 010 .72l-2.885 3.54a18.977 18.977 0 004.567 6.91z"/></g><defs><clipPath id="gclip0_736_8897"><path d="M0 0h32v32H0z"/></clipPath></defs></svg><svg viewBox="0 0 24 24" id="exit" xmlns="http://www.w3.org/2000/svg"><path d="M18 6L6 18M6 6l12 12"/></svg><svg viewBox="0 0 32 32" id="facebook" xmlns="http://www.w3.org/2000/svg"><path d="M5.843 0A5.83 5.83 0 000 5.843v20.314A5.83 5.83 0 005.843 32h11.01V19.49h-3.308v-4.504h3.308v-3.848c0-3.023 1.955-5.799 6.457-5.799 1.823 0 3.171.175 3.171.175l-.106 4.206S25 9.707 23.5 9.707c-1.624 0-1.884.748-1.884 1.99v3.289h4.888l-.213 4.504h-4.675V32h4.541A5.83 5.83 0 0032 26.157V5.843A5.83 5.83 0 0026.157 0H5.843z"/></svg><svg viewBox="0 0 32 32" id="instagram" xmlns="http://www.w3.org/2000/svg"><g clip-path="url(#jclip0_736_8890)"><path fill-rule="evenodd" clip-rule="evenodd" d="M9.404.096C11.11.017 11.654 0 16 0s4.89.019 6.595.096 2.868.349 3.887.743a7.872 7.872 0 012.833 1.847 7.815 7.815 0 011.844 2.832c.396 1.018.667 2.182.745 3.884C31.983 11.11 32 11.655 32 16c0 4.346-.019 4.89-.096 6.596-.077 1.702-.35 2.866-.745 3.884a7.85 7.85 0 01-1.844 2.835 7.846 7.846 0 01-2.834 1.844c-1.018.396-2.181.666-3.883.745C20.89 31.982 20.346 32 16 32s-4.89-.02-6.596-.096c-1.702-.077-2.866-.35-3.884-.745a7.85 7.85 0 01-2.835-1.844A7.844 7.844 0 01.84 26.48C.445 25.463.175 24.3.096 22.598.017 20.888 0 20.345 0 16c0-4.346.019-4.89.096-6.595s.35-2.869.743-3.887a7.849 7.849 0 011.848-2.833A7.843 7.843 0 015.519.839C6.537.445 7.7.174 9.402.096h.002zm13.061 2.88c-1.687-.077-2.193-.093-6.465-.093s-4.778.016-6.465.093c-1.561.071-2.408.331-2.972.551-.746.29-1.28.636-1.84 1.196a4.963 4.963 0 00-1.196 1.84c-.22.564-.48 1.41-.551 2.971-.077 1.688-.093 2.194-.093 6.466s.016 4.778.093 6.465c.071 1.56.332 2.407.551 2.972a4.965 4.965 0 001.196 1.84c.516.53 1.146.94 1.84 1.195.564.22 1.41.48 2.972.552 1.687.077 2.191.093 6.465.093 4.273 0 4.778-.016 6.465-.093 1.561-.072 2.408-.332 2.972-.552a4.968 4.968 0 001.84-1.195c.531-.517.94-1.146 1.196-1.84.22-.565.48-1.411.551-2.972.077-1.687.093-2.193.093-6.465s-.016-4.778-.093-6.466c-.071-1.56-.332-2.407-.551-2.971a4.968 4.968 0 00-1.196-1.84 4.965 4.965 0 00-1.84-1.196c-.564-.22-1.41-.48-2.972-.551zm-8.509 17.956a5.337 5.337 0 005.819-8.707 5.339 5.339 0 10-5.819 8.707zm-3.771-10.747a8.224 8.224 0 1111.63 11.63 8.224 8.224 0 01-11.63-11.63zM26.048 9a1.945 1.945 0 10-2.67-2.83A1.945 1.945 0 0026.048 9z"/></g><defs><clipPath id="jclip0_736_8890"><path d="M0 0h32v32H0z"/></clipPath></defs></svg><svg viewBox="0 0 20 20" id="phone" xmlns="http://www.w3.org/2000/svg"><path d="M8.456 11.467a11.316 11.316 0 004.11 2.661l2.095-1.667a.372.372 0 01.422 0l3.89 2.506a1.112 1.112 0 01.183 1.767l-1.823 1.8a2.222 2.222 0 01-2.016.594 19.494 19.494 0 01-9.528-5 18.772 18.772 0 01-5.15-9.35 2.1 2.1 0 01.611-1.972L3.14.984a1.111 1.111 0 011.733.177l2.59 3.84a.35.35 0 010 .416l-1.706 2.05a10.972 10.972 0 002.7 4z"/></svg><svg viewBox="0 0 19 24" id="play" xmlns="http://www.w3.org/2000/svg"><path d="M1.667 1.333l16 10.667-16 10.667V1.333z"/></svg><svg viewBox="0 0 32 32" id="post" xmlns="http://www.w3.org/2000/svg"><g clip-path="url(#mclip0_736_8899)"><path d="M27 3a5 5 0 015 5v16a5 5 0 01-5 5H5a5 5 0 01-5-5V8a5 5 0 015-5h22zm3 7.922l-13.492 7.94a1 1 0 01-.852.076l-.164-.076L2 10.926V24a3 3 0 003 3h22a3 3 0 003-3V10.922zM27 5H5a3 3 0 00-3 3v.604l14 8.236L30 8.6V8a3 3 0 00-3-3z"/></g><defs><clipPath id="mclip0_736_8899"><path d="M0 0h32v32H0z"/></clipPath></defs></svg><svg viewBox="0 0 24 24" id="users" xmlns="http://www.w3.org/2000/svg"><path d="M12 4.354a4 4 0 110 5.292M15 21H3v-1a6 6 0 1112 0v1zm0 0h6v-1a6 6 0 00-9-5.197M13 7a4 4 0 11-8 0 4 4 0 018 0z"/></svg><svg viewBox="0 0 32 32" id="whatsapp" xmlns="http://www.w3.org/2000/svg"><path d="M27.325 4.652A15.784 15.784 0 0022.162 1.2 15.841 15.841 0 0016.06 0C7.287 0 .137 7.116.13 15.852c0 2.798.735 5.52 2.123 7.93L0 32l8.446-2.204a15.995 15.995 0 007.614 1.93h.008c8.776 0 15.924-7.116 15.932-15.86a15.735 15.735 0 00-1.213-6.072 15.79 15.79 0 00-3.464-5.142h.002zM16.06 29.042a13.25 13.25 0 01-6.742-1.84l-.482-.288-5.01 1.308 1.337-4.866-.313-.502a13.076 13.076 0 01-2.023-7.01c0-7.252 5.94-13.168 13.241-13.168 1.74-.003 3.462.337 5.07 1a13.183 13.183 0 014.292 2.862 13.11 13.11 0 012.873 4.275 13.063 13.063 0 011 5.045c-.007 7.278-5.948 13.184-13.243 13.184zm7.263-9.868c-.396-.198-2.35-1.156-2.718-1.292-.366-.13-.633-.198-.894.198-.267.394-1.03 1.292-1.26 1.55-.229.266-.466.296-.864.1-.396-.2-1.68-.616-3.198-1.97-1.186-1.05-1.98-2.35-2.216-2.744-.23-.396-.022-.608.177-.806.174-.176.395-.464.594-.692.201-.228.267-.396.398-.66.13-.268.068-.496-.03-.694-.1-.198-.894-2.152-1.23-2.94-.321-.778-.649-.67-.894-.68-.229-.014-.496-.014-.763-.014a1.47 1.47 0 00-1.063.494c-.366.396-1.388 1.354-1.388 3.308 0 1.954 1.426 3.832 1.627 4.098.197.266 2.8 4.264 6.797 5.984.944.41 1.687.652 2.268.836.954.304 1.816.258 2.503.16.764-.116 2.353-.96 2.688-1.886.33-.928.33-1.72.23-1.886-.1-.168-.366-.266-.764-.464z"/></svg></svg>