<?xml version="1.0" encoding="utf-8"?><svg viewBox="0 0 24 24" xmlns="http://www.w3.org/2000/svg" xmlns:xlink="http://www.w3.org/1999/xlink"><style>:root>svg{display:none}:root>svg:target{display:block}</style><svg viewBox="0 0 10 6" id="arrow" xmlns="http://www.w3.org/2000/svg"><path d="M1 1l4 4 4-4"/></svg><svg viewBox="0 0 12 9" id="check" xmlns="http://www.w3.org/2000/svg"><path d="M11 1L4.125 7.875 1 4.75"/></svg><svg viewBox="0 0 24 24" id="exit" xmlns="http://www.w3.org/2000/svg"><path d="M18 6L6 18M6 6l12 12"/></svg><svg viewBox="0 0 20 20" id="phone" xmlns="http://www.w3.org/2000/svg"><path d="M8.456 11.467a11.316 11.316 0 004.11 2.661l2.095-1.667a.372.372 0 01.422 0l3.89 2.506a1.112 1.112 0 01.183 1.767l-1.823 1.8a2.222 2.222 0 01-2.016.594 19.494 19.494 0 01-9.528-5 18.772 18.772 0 01-5.15-9.35 2.1 2.1 0 01.611-1.972L3.14.984a1.111 1.111 0 011.733.177l2.59 3.84a.35.35 0 010 .416l-1.706 2.05a10.972 10.972 0 002.7 4z"/></svg></svg>