<svg width="24" height="24" viewBox="0 0 24 24" fill="none" xmlns="http://www.w3.org/2000/svg">
<path d="M4.29918 23.7084C4.18218 24.4187 4.83918 24.9739 5.41818 24.6571L12.0032 21.0478L18.5867 24.6571C19.1657 24.9739 19.8227 24.4187 19.7057 23.71L18.4607 16.1425L23.7437 10.7734C24.2387 10.271 23.9837 9.35267 23.3207 9.25347L15.9737 8.13996L12.6977 1.21729C12.6353 1.07696 12.5368 0.958398 12.4137 0.875379C12.2907 0.79236 12.148 0.748291 12.0024 0.748291C11.8568 0.748291 11.7142 0.79236 11.5911 0.875379C11.468 0.958398 11.3696 1.07696 11.3072 1.21729L8.03118 8.14156L0.684177 9.25507C0.0226774 9.35427 -0.233823 10.2726 0.259677 10.775L5.54418 16.1441L4.29918 23.7116V23.7084ZM11.6567 19.2815L6.12768 22.3117L7.16868 15.981C7.19306 15.8352 7.18352 15.6853 7.14089 15.5445C7.09826 15.4036 7.02384 15.276 6.92418 15.173L2.56518 10.7414L8.64318 9.81983C8.76903 9.79956 8.88841 9.74705 8.99108 9.6668C9.09374 9.58656 9.17665 9.48096 9.23268 9.35907L12.0002 3.50671L14.7707 9.35907C14.8267 9.48096 14.9096 9.58656 15.0123 9.6668C15.1149 9.74705 15.2343 9.79956 15.3602 9.81983L21.4382 10.7398L17.0792 15.1714C16.9793 15.2746 16.9047 15.4024 16.8621 15.5436C16.8194 15.6848 16.81 15.835 16.8347 15.981L17.8757 22.3117L12.3467 19.2815C12.2398 19.2227 12.1212 19.192 12.0009 19.192C11.8806 19.192 11.7621 19.2227 11.6552 19.2815H11.6567Z" fill="#DBC81A"/>
</svg>
